<!DOCTYPE svg PUBLIC "-//W3C//DTD SVG 1.1//EN" "http://www.w3.org/Graphics/SVG/1.1/DTD/svg11.dtd">
<!-- Uploaded to: SVG Repo, www.svgrepo.com, Transformed by: SVG Repo Mixer Tools -->
<svg width="256px" height="256px" viewBox="-1.6 -1.6 19.20 19.20" fill="none" xmlns="http://www.w3.org/2000/svg" stroke="#000000" stroke-width="0.00016" transform="rotate(0)">
<g id="SVGRepo_bgCarrier" stroke-width="0">
<path transform="translate(-1.6, -1.6), scale(0.6)" d="M16,25.66322542295644C17.719069569390946,25.341768267024392,19.369207340117754,25.142560351248388,21.086015650316288,24.809237514438276C23.617566705797536,24.317730236467877,26.941573939581307,25.26673135500815,28.525196625115267,23.231425643163295C30.03601316809167,21.289691941342294,28.32506565268253,18.42998574498358,27.940272624555387,16C27.61105200511679,13.920956582596595,27.015418957981176,12.001052701145156,26.42681888688361,9.980073308866277C25.657025991201706,7.336961873974989,26.385526652573475,3.510940468627548,23.936630720076597,2.2533523519153817C21.437814675014256,0.9701286254926607,18.662875377260722,3.731223498134126,16,4.625560953624939C14.150652750701635,5.246671700068444,12.516364042967929,6.179788884317395,10.641388766173472,6.718613085003097C8.041968456585524,7.465625905862522,4.834270573434942,6.57190972761568,2.8462075309975585,8.40565437715696C0.870627561046422,10.227884921313823,-0.19822291611627796,13.427165815702345,0.578928699618892,15.999999999999996C1.3792766793656046,18.649627948953018,4.982482802488073,19.21118885074331,6.752819003357329,21.33886243765683C8.124172640132393,22.987019951382997,7.740691275528699,26.03331441267422,9.682884947935996,26.941564227432956C11.662720055134335,27.867416728608564,13.85161517176512,26.064962321234866,16,25.66322542295644" fill="#b1a4c6" strokewidth="0"/>
</g>
<g id="SVGRepo_tracerCarrier" stroke-linecap="round" stroke-linejoin="round"/>
<g id="SVGRepo_iconCarrier"> <path d="M15 1H1V7H3.38197L4.88196 4L7.11803 4L10 9.76393L11.382 7H15V1Z" fill="#000000"/> <path d="M15 9H12.618L11.118 12L8.88197 12L6 6.23607L4.61803 9H1V15H15V9Z" fill="#000000"/> </g>
</svg>